<?xml version="1.0" standalone="no"?>
<!DOCTYPE svg PUBLIC "-//W3C//DTD SVG 20010904//EN"
 "http://www.w3.org/TR/2001/REC-SVG-20010904/DTD/svg10.dtd">
<svg version="1.0" xmlns="http://www.w3.org/2000/svg"
 width="900.000000pt" height="900.000000pt" viewBox="0 0 900.000000 900.000000"
 preserveAspectRatio="xMidYMid meet">
<metadata>
Created by potrace 1.10, written by Peter Selinger 2001-2011
</metadata>
<g transform="translate(0.000000,900.000000) scale(0.100000,-0.100000)"
fill="#000000" stroke="none">
<path d="M5485 8260 c-3 -5 4 -12 17 -14 13 -3 34 -7 48 -10 14 -2 61 -16 105
-31 44 -14 125 -39 180 -56 124 -38 179 -58 330 -119 151 -61 198 -82 355
-160 69 -34 139 -70 155 -81 17 -10 37 -22 45 -26 8 -4 85 -49 170 -100 203
-123 190 -114 231 -145 35 -27 65 -37 57 -20 -18 41 -340 286 -428 326 -8 3
-37 20 -65 37 -27 16 -115 62 -195 100 -80 39 -154 76 -164 81 -11 6 -31 14
-45 18 -14 5 -51 18 -81 30 -86 33 -230 81 -285 95 -27 7 -90 23 -140 35 -49
12 -113 28 -141 36 -58 16 -140 19 -149 4z"/>
<path d="M4305 8209 c-77 -5 -162 -13 -188 -19 -26 -5 -68 -10 -92 -10 -25 0
-77 -7 -117 -14 -40 -8 -113 -22 -163 -31 -107 -19 -196 -39 -325 -73 -52 -13
-108 -28 -125 -32 -16 -4 -52 -15 -80 -24 -27 -10 -72 -24 -100 -31 -27 -8
-95 -30 -150 -50 -55 -20 -111 -40 -125 -44 -100 -34 -460 -203 -523 -245 -17
-12 -39 -25 -47 -29 -8 -4 -28 -16 -45 -27 -16 -11 -36 -23 -44 -27 -24 -11
-233 -153 -296 -201 -311 -236 -657 -583 -884 -884 -108 -144 -158 -217 -246
-365 -41 -70 -80 -135 -85 -143 -5 -8 -21 -37 -35 -65 -14 -27 -30 -57 -35
-65 -14 -21 -83 -174 -110 -240 -12 -30 -26 -63 -31 -73 -5 -9 -20 -50 -33
-90 -14 -39 -30 -88 -37 -107 -28 -83 -64 -206 -79 -275 -6 -27 -18 -81 -26
-120 -46 -204 -65 -411 -65 -685 0 -222 9 -350 35 -505 15 -85 21 -114 60
-275 26 -107 54 -199 82 -265 7 -16 36 -85 64 -153 63 -151 146 -317 214 -429
28 -46 56 -91 61 -101 60 -102 335 -452 356 -452 17 0 9 33 -18 69 -38 49 -44
60 -106 186 -73 145 -137 284 -137 294 0 5 -12 35 -26 67 -14 33 -48 127 -75
209 -27 83 -54 164 -60 180 -6 17 -15 46 -20 65 -4 19 -15 62 -23 95 -26 101
-31 125 -75 370 -46 246 -49 845 -6 1100 40 240 48 284 61 327 8 26 14 53 14
61 0 23 79 272 120 377 12 30 25 67 30 82 12 38 142 304 186 379 91 157 242
369 358 504 144 168 491 495 525 495 6 0 11 5 11 10 0 6 6 10 14 10 8 0 -53
-69 -136 -152 -253 -257 -468 -517 -624 -753 -76 -116 -90 -141 -173 -310 -96
-196 -123 -267 -176 -470 -42 -156 -54 -242 -62 -435 -7 -194 15 -353 79 -565
94 -312 233 -582 437 -848 169 -222 174 -228 265 -322 48 -49 104 -112 124
-138 42 -56 122 -115 122 -92 0 8 -4 15 -10 15 -5 0 -10 7 -10 15 0 8 -7 15
-15 15 -8 0 -15 7 -15 15 0 23 11 18 60 -26 116 -104 347 -295 408 -336 37
-25 69 -49 72 -52 9 -12 307 -199 365 -229 14 -7 25 -17 25 -23 0 -5 9 -9 19
-9 11 0 22 -4 26 -9 10 -17 -11 -20 -39 -5 -16 7 -34 14 -41 14 -6 0 -34 12
-61 26 -27 15 -71 38 -99 52 -100 52 -337 205 -490 316 -69 51 -143 91 -152
83 -8 -9 353 -360 491 -479 131 -113 350 -283 461 -358 179 -121 321 -214 355
-231 22 -12 40 -25 40 -29 0 -4 10 -10 22 -14 17 -4 20 -8 11 -17 -12 -12 -63
1 -198 48 -38 14 -83 28 -100 33 -16 5 -41 12 -54 16 l-24 7 19 -26 c10 -15
22 -27 26 -27 3 0 42 -26 85 -57 44 -32 88 -63 99 -70 74 -46 306 -185 339
-204 110 -61 380 -188 445 -209 14 -5 50 -18 80 -30 30 -12 87 -32 125 -45 39
-13 81 -28 95 -33 14 -5 52 -18 85 -27 33 -10 78 -23 100 -30 97 -31 249 -67
338 -80 23 -4 35 -10 31 -17 -9 -14 -356 -5 -464 12 -378 57 -491 83 -780 175
-154 48 -164 52 -305 110 -176 73 -466 213 -582 282 -40 23 -75 39 -77 34 -10
-16 121 -123 274 -223 131 -86 244 -145 415 -218 253 -109 435 -167 700 -223
39 -8 93 -20 120 -26 28 -6 84 -16 125 -21 41 -5 107 -13 145 -19 153 -21 415
-34 570 -28 297 12 449 25 665 57 41 7 100 15 131 20 31 4 81 13 110 20 30 6
83 18 119 26 81 19 176 43 215 56 17 6 46 14 65 18 19 4 60 18 90 30 30 12 69
26 85 30 48 14 115 39 170 66 29 13 55 24 60 24 8 0 228 110 317 158 85 47
238 142 279 174 20 15 40 28 44 28 3 0 43 28 88 62 282 213 550 482 769 773
71 94 186 263 201 295 4 8 16 29 27 45 50 78 162 298 205 402 20 48 42 102 49
118 14 31 35 85 60 153 49 133 117 387 136 512 6 36 13 72 16 80 12 31 35 231
44 385 25 405 -49 947 -168 1245 -5 14 -17 43 -25 65 -99 264 -213 484 -373
725 -277 417 -669 828 -1032 1083 -56 40 -133 93 -170 120 -37 26 -116 77
-176 114 -59 36 -131 81 -160 99 -28 19 -91 55 -141 80 -49 25 -97 49 -105 54
-8 5 -40 20 -70 33 -30 14 -86 39 -125 57 -38 18 -81 36 -95 41 -14 4 -50 17
-80 29 -73 28 -239 82 -320 105 -36 9 -85 23 -110 30 -345 96 -793 132 -1265
104z m750 -99 c28 -6 91 -14 140 -20 50 -5 115 -15 145 -20 101 -19 205 -42
250 -55 25 -6 74 -20 110 -30 36 -9 97 -28 135 -42 39 -13 84 -28 100 -33 83
-23 294 -115 442 -191 174 -91 163 -85 368 -217 352 -227 765 -659 956 -999
124 -221 202 -444 251 -723 18 -103 18 -553 0 -635 -50 -225 -62 -267 -116
-412 -38 -100 -92 -223 -133 -302 -60 -112 -90 -172 -97 -193 -3 -10 -10 -18
-16 -18 -13 0 -13 51 0 86 6 14 20 70 32 123 19 82 22 127 22 316 1 253 -11
337 -81 575 -47 163 -155 401 -251 552 -9 15 -36 57 -59 95 -44 69 -151 213
-255 341 -57 70 -352 372 -438 448 -25 22 -74 64 -110 93 -36 30 -67 57 -70
60 -24 32 -492 369 -560 404 -8 4 -28 16 -45 27 -16 11 -39 24 -50 30 -11 6
-47 26 -80 45 -211 123 -752 346 -922 380 -18 4 -35 11 -38 16 -4 5 -21 9 -38
9 -18 0 -39 4 -47 10 -12 8 -12 10 2 15 26 10 392 -24 493 -46 141 -31 188
-43 280 -71 113 -34 167 -53 208 -74 16 -8 35 -14 44 -14 21 0 10 24 -13 29
-10 2 -21 7 -24 11 -8 13 -104 54 -210 89 -112 37 -132 43 -194 58 -215 50
-278 56 -571 60 -154 1 -397 6 -540 9 -331 8 -514 -7 -765 -62 -93 -20 -255
-68 -308 -90 -18 -8 -42 -14 -53 -14 -28 0 -19 24 11 28 13 2 30 10 37 18 8 8
22 14 31 14 9 0 26 7 36 15 11 8 26 15 34 15 8 0 28 6 45 14 32 13 125 45 272
93 88 28 334 91 460 117 44 9 100 21 125 26 25 6 86 15 135 21 50 6 110 15
135 19 65 11 726 11 785 0z m252 -634 c81 -40 111 -56 143 -75 19 -11 44 -25
55 -30 62 -27 315 -189 435 -277 229 -169 357 -281 596 -519 289 -288 408
-432 624 -755 53 -78 87 -137 152 -260 23 -45 108 -243 133 -310 46 -126 71
-241 89 -395 15 -129 15 -140 -10 -380 -6 -68 -30 -173 -55 -245 -27 -78 -41
-116 -55 -143 -8 -16 -14 -33 -14 -38 0 -30 -165 -269 -254 -369 -95 -106
-431 -428 -457 -438 -14 -5 -11 20 5 37 7 9 38 52 68 96 132 191 211 398 260
675 17 100 18 509 0 610 -37 215 -81 385 -134 520 -114 288 -284 582 -629
1085 -19 28 -61 86 -94 129 -95 126 -114 154 -107 160 22 23 487 -548 622
-764 19 -30 52 -84 74 -120 23 -36 47 -74 54 -85 7 -11 17 -32 23 -47 12 -30
29 -29 29 2 0 11 -6 34 -14 52 -8 18 -24 58 -36 88 -73 184 -173 357 -314 545
-179 239 -255 325 -605 678 -282 285 -417 409 -559 517 -68 52 -84 70 -63 70
5 0 22 -6 38 -14z m2844 -1301 c11 -23 23 -43 63 -105 82 -127 232 -458 281
-620 9 -30 21 -68 27 -85 17 -47 22 -105 9 -105 -6 0 -13 12 -16 28 -4 15 -13
42 -21 60 -8 18 -14 39 -14 47 0 7 -6 26 -14 42 -8 15 -29 64 -46 108 -18 44
-45 108 -61 142 -16 35 -29 66 -29 70 0 7 -115 239 -142 288 -18 32 -26 47
-50 95 -12 25 -28 53 -36 62 -8 9 -11 22 -7 29 8 12 36 -15 56 -56z m-2405
-54 c233 -48 449 -176 670 -396 87 -87 173 -198 241 -310 26 -44 143 -283 143
-293 0 -6 6 -23 14 -39 15 -30 33 -80 46 -128 5 -16 13 -43 19 -60 5 -16 16
-57 24 -90 8 -33 20 -80 26 -105 6 -25 17 -118 23 -207 12 -169 1 -426 -23
-523 -33 -136 -44 -172 -70 -241 -16 -42 -29 -79 -29 -82 0 -10 -69 -149 -90
-182 -11 -16 -23 -37 -27 -45 -34 -74 -212 -266 -318 -344 -155 -113 -296
-165 -537 -196 -108 -14 -295 8 -427 50 -492 159 -900 575 -1040 1060 -68 237
-76 297 -76 555 0 306 26 441 134 700 106 257 273 473 493 641 53 41 99 74
102 74 2 0 39 20 80 45 42 25 82 45 89 45 7 0 17 4 23 9 14 13 109 43 194 62
103 22 210 22 316 0z m2813 -923 c-1 -41 -1 -42 -11 -15 -5 15 -7 34 -4 42 10
27 16 16 15 -27z m-980 -995 c0 -5 -4 -17 -9 -28 -8 -18 -9 -17 -9 8 -1 15 4
27 9 27 6 0 10 -3 9 -7z m-6021 -851 c70 -65 143 -131 162 -147 65 -54 725
-715 714 -715 -63 0 -629 506 -844 757 -36 41 -72 83 -80 92 -63 69 -100 115
-100 122 0 23 30 0 148 -109z"/>
<path d="M5362 7958 c3 -7 13 -14 24 -16 10 -2 34 -10 52 -18 54 -24 93 -40
187 -79 177 -72 379 -172 540 -266 17 -10 48 -27 69 -39 41 -23 153 -93 224
-141 23 -16 45 -29 48 -29 5 0 163 -115 210 -154 18 -14 37 -26 43 -26 6 0 11
-4 11 -10 0 -5 7 -10 16 -10 29 0 -95 118 -231 219 -155 116 -205 149 -297
200 -24 13 -68 37 -98 54 -105 58 -411 207 -426 207 -3 0 -20 6 -37 14 -32 13
-81 32 -147 56 -19 7 -48 15 -65 18 -16 2 -39 11 -50 18 -25 18 -78 19 -73 2z"/>
<path d="M7290 6757 c0 -9 5 -17 10 -17 6 0 10 -9 10 -19 0 -11 6 -26 13 -33
7 -7 23 -33 36 -58 12 -25 32 -61 43 -80 11 -19 44 -80 72 -135 45 -90 72
-146 124 -265 8 -19 19 -42 24 -50 12 -22 16 -32 22 -62 4 -16 11 -28 17 -28
19 0 4 69 -37 165 -7 17 -20 50 -29 75 -17 46 -41 103 -55 131 -10 20 -62 115
-75 137 -5 9 -25 43 -43 75 -19 31 -38 57 -43 57 -5 0 -9 5 -9 11 0 6 -14 30
-32 53 -46 60 -48 62 -48 43z"/>
<path d="M6830 5910 c0 -5 13 -36 29 -67 26 -54 71 -161 108 -258 8 -22 20
-51 25 -65 35 -88 92 -296 122 -440 40 -191 47 -260 47 -485 1 -239 10 -323
24 -230 4 28 14 74 22 102 18 65 13 489 -7 598 -36 198 -91 364 -181 550 -27
55 -65 127 -84 160 -19 33 -38 68 -41 78 -4 9 -10 17 -15 17 -5 0 -14 11 -19
25 -9 24 -30 35 -30 15z"/>
<path d="M716 3783 c-9 -117 -7 -430 5 -503 5 -36 14 -90 18 -120 5 -30 14
-77 21 -105 6 -27 19 -77 27 -110 63 -254 261 -747 337 -839 l24 -29 10 34
c25 86 80 198 145 296 65 97 125 162 206 222 86 64 144 91 199 91 23 0 42 4
42 8 0 4 -17 21 -38 37 -94 73 -168 140 -323 295 -207 207 -286 296 -460 519
-52 68 -159 227 -159 238 0 10 -32 43 -42 43 -3 0 -8 -34 -12 -77z"/>
<path d="M2140 1268 c100 -94 267 -199 485 -307 154 -75 190 -91 335 -147 57
-22 181 -64 233 -79 26 -8 71 -21 100 -30 28 -8 77 -20 107 -25 30 -5 74 -14
97 -18 23 -5 47 -6 53 -2 7 4 -4 10 -27 15 -21 4 -43 11 -48 15 -6 5 -44 20
-85 34 -41 13 -100 34 -130 46 -30 12 -71 27 -90 34 -260 97 -645 285 -1033
505 -65 37 -64 23 3 -41z"/>
</g>
</svg>
